{"title":"The Transporter Refueled (2015) - 1CD - CAM - XViD - MP3 -={SPAR","uid":12390164,"size":733234668,"categoryP":"video","categoryS":"other","magnet":"?xt=urn:btih:7cf978d17ca850c7e27a43e913968cf031764c5f&amp;dn=The+Transporter+Refueled+%282015%29+-+1CD+-+CAM+-+XViD+-+MP3+-%3D%7BSPAR&amp;tr=udp%3A%2F%2Ftracker.openbittorrent.com%3A80&amp;tr=udp%3A%2F%2Fopen.demonii.com%3A1337&amp;tr=udp%3A%2F%2Ftracker.coppersurfer.tk%3A6969&amp;tr=udp%3A%2F%2Fexodus.desync.com%3A6969","seeders":8,"leechers":7,"uploader":"SS132203","files":3,"time":1441883355,"description":"The Transporter Refueled (2015) - 1CD - CAM - XViD - MP3 -={SPARROW}=-\n &lt;a href=&quot;\nhttp://imgsparrow.co/image/85x&quot; rel=&quot;nofollow&quot; target=&quot;_NEW&quot;&gt;\nhttp://imgsparrow.co/image/85x&lt;/a&gt;\n &lt;a href=&quot;\nhttp://imgsparrow.co/image/9b&quot; rel=&quot;nofollow&quot; target=&quot;_NEW&quot;&gt;\nhttp://imgsparrow.co/image/9b&lt;/a&gt;\n\nInfo : - \n\nThank Thanks MRG For Source!\nSample Within Torrent\n\nFormat                      : AVI\nFormat/Info                 : Audio Video Interleave\nFile size                   : 678 MiB\nDuration                    : 1h 29mn\nOverall bit rate            : 1 053 Kbps\n\nVideo\nID                          : 0\nFormat                      : MPEG-4 Visual\nFormat profile              : Advanced Simple@L4\nFormat settings, BVOP       : 2\nFormat settings, QPel       : No\nFormat settings, GMC        : No warppoints\nFormat settings, Matrix     : Default (H.263)\nCodec ID                    : DIVX\nCodec ID/Info               : Project Mayo\nCodec ID/Hint               : DivX 4\nDuration                    : 1h 29mn\nBit rate                    : 880 Kbps\nWidth                       : 640 pixels\nHeight                      : 276 pixels\nDisplay aspect ratio        : 2.35:1\nFrame rate                  : 25.000 fps\nColor space                 : YUV\nChroma subsampling          : 4:2:0\nBit depth                   : 8 bits\nScan type                   : Progressive\nCompression mode            : Lossy\nBits/(Pixel*Frame)          : 0.199\nStream size                 : 566 MiB (84%)\nWriting library             : XviD 64\n\nAudio\nID                          : 1\nFormat                      : MPEG Audio\nFormat version              : Version 1\nFormat profile              : Layer 3\nCodec ID                    : 55\nCodec ID/Hint               : MP3\nDuration                    : 1h 29mn\nBit rate mode               : Constant\nBit rate                    : 160 Kbps\nChannel(s)                  : 2 channels\nSampling rate               : 48.0 KHz\nCompression mode            : Lossy\nStream size                 : 103 MiB (15%)\nAlignment                   : Aligned on interleaves\nInterleave, duration        : 24 ms (0.60 video frame)\n\nScreens : -\n &lt;a href=&quot;\nhttp://imgsparrow.co/image/8Zb&quot; rel=&quot;nofollow&quot; target=&quot;_NEW&quot;&gt;\nhttp://imgsparrow.co/image/8Zb&lt;/a&gt; &lt;a href=&quot;\nhttp://imgsparrow.co/image/8Zh&quot; rel=&quot;nofollow&quot; target=&quot;_NEW&quot;&gt;\nhttp://imgsparrow.co/image/8Zh&lt;/a&gt; &lt;a href=&quot;\nhttp://imgsparrow.co/image/8Zj&quot; rel=&quot;nofollow&quot; target=&quot;_NEW&quot;&gt;\nhttp://imgsparrow.co/image/8Zj&lt;/a&gt; &lt;a href=&quot;\nhttp://imgsparrow.co/image/8Zr&quot; rel=&quot;nofollow&quot; target=&quot;_NEW&quot;&gt;\nhttp://imgsparrow.co/image/8Zr&lt;/a&gt; &lt;a href=&quot;\nhttp://imgsparrow.co/image/8ZD&quot; rel=&quot;nofollow&quot; target=&quot;_NEW&quot;&gt;\nhttp://imgsparrow.co/image/8ZD&lt;/a&gt; &lt;a href=&quot;\nhttp://imgsparrow.co/image/8ZG&quot; rel=&quot;nofollow&quot; target=&quot;_NEW&quot;&gt;\nhttp://imgsparrow.co/image/8ZG&lt;/a&gt; &lt;a href=&quot;\nhttp://imgsparrow.co/image/8Ze&quot; rel=&quot;nofollow&quot; target=&quot;_NEW&quot;&gt;\nhttp://imgsparrow.co/image/8Ze&lt;/a&gt; &lt;a href=&quot;\nhttp://imgsparrow.co/image/8Zg&quot; rel=&quot;nofollow&quot; target=&quot;_NEW&quot;&gt;\nhttp://imgsparrow.co/image/8Zg&lt;/a&gt; &lt;a href=&quot;\nhttp://imgsparrow.co/image/8Zq&quot; rel=&quot;nofollow&quot; target=&quot;_NEW&quot;&gt;\nhttp://imgsparrow.co/image/8Zq&lt;/a&gt;\n &lt;a href=&quot;\nhttp://imgsparrow.co/image/8nG&quot; rel=&quot;nofollow&quot; target=&quot;_NEW&quot;&gt;\nhttp://imgsparrow.co/image/8nG&lt;/a&gt;","torrent":{"xt":"urn:btih:7cf978d17ca850c7e27a43e913968cf031764c5f","amp;dn":"The+Transporter+Refueled+%282015%29+-+1CD+-+CAM+-+XViD+-+MP3+-%3D%7BSPAR","amp;tr":["udp%3A%2F%2Ftracker.openbittorrent.com%3A80","udp%3A%2F%2Fopen.demonii.com%3A1337","udp%3A%2F%2Ftracker.coppersurfer.tk%3A6969","udp%3A%2F%2Fexodus.desync.com%3A6969"],"infoHash":"7cf978d17ca850c7e27a43e913968cf031764c5f","infoHashBuffer":{"type":"Buffer","data":[124,249,120,209,124,168,80,199,226,122,67,233,19,150,140,240,49,118,76,95]},"announce":[],"urlList":[]}}